<svg xmlns="http://www.w3.org/2000/svg" width="512" height="512" viewBox="0 0 512 512" version="1.1">
	<path d="M 109.500 1.459 C 80.885 6.075, 55.910 18.957, 36.413 39.157 C 19.644 56.532, 9.507 75.073, 3.185 99.940 L 0.500 110.500 0.500 256 L 0.500 401.500 3.185 412.060 C 16.173 463.143, 52.939 498.743, 104 509.679 C 111.996 511.392, 120.979 511.500, 255.500 511.500 L 398.500 511.500 409 509.165 C 428.276 504.879, 446.589 496.397, 461.528 484.838 C 469.494 478.673, 482.527 465.065, 488.333 456.850 C 500.206 440.050, 508.985 416.680, 510.716 397.260 C 511.253 391.235, 511.559 390.171, 512.085 392.500 C 512.458 394.150, 512.753 332.275, 512.740 255 C 512.727 177.725, 512.432 116.300, 512.085 118.500 C 511.520 122.079, 511.378 121.682, 510.738 114.740 C 508.939 95.203, 500.185 71.920, 488.333 55.150 C 478.227 40.850, 460.520 24.863, 445.466 16.444 C 436.124 11.219, 422.924 6.138, 411 3.176 L 400.500 0.568 259 0.368 C 147.449 0.210, 115.807 0.441, 109.500 1.459 M 0.486 256 C 0.486 333.275, 0.605 364.888, 0.750 326.250 C 0.895 287.613, 0.895 224.388, 0.750 185.750 C 0.605 147.113, 0.486 178.725, 0.486 256 M 153.486 128.353 C 151.192 130.748, 147.877 135.135, 146.121 138.103 C 144.365 141.072, 140.706 146.875, 137.990 151 C 135.274 155.125, 132.728 159.175, 132.332 160 C 131.936 160.825, 129.050 165.409, 125.919 170.187 C 118.669 181.251, 115.997 189.006, 116.011 198.944 C 116.038 217.981, 125.153 231.300, 142.083 237.043 C 147.412 238.850, 150.026 239.138, 157.500 238.737 C 167.774 238.187, 174.997 235.508, 183.488 229.097 L 188.559 225.268 192.029 228.253 C 193.938 229.894, 198.875 232.826, 203 234.768 C 219.014 242.307, 238.483 239.689, 251.088 228.302 L 255.085 224.690 258.293 227.759 C 262.186 231.484, 271.781 236.428, 278.272 238.054 C 284.978 239.733, 298.214 238.774, 305.145 236.107 C 308.249 234.912, 312.704 232.487, 315.044 230.718 C 317.384 228.948, 319.794 227.125, 320.399 226.667 C 321.068 226.161, 324.160 227.619, 328.284 230.387 C 341.113 238.998, 355.626 241.246, 369.500 236.771 C 375.507 234.834, 377.430 233.576, 383.054 227.907 C 391.021 219.875, 394.010 213.178, 394.757 201.689 C 395.473 190.654, 393.345 183.626, 385.684 171.732 C 382.283 166.452, 376.800 157.819, 373.500 152.548 C 362.247 134.573, 356.502 126.541, 354 125.285 C 352.046 124.304, 330.321 124.026, 254.579 124.015 L 157.657 124 153.486 128.353 M 167 253.170 C 164.525 253.693, 157.423 253.927, 151.218 253.691 L 139.935 253.261 140.218 307.881 L 140.500 362.500 144.079 369 C 148.254 376.583, 154.986 382.275, 162.432 384.516 C 169.984 386.789, 341.167 386.733, 348.839 384.455 C 356.125 382.291, 364.874 373.661, 367.840 365.712 C 369.954 360.049, 370 358.783, 370 306.685 L 370 253.445 357.250 253.473 C 350.238 253.488, 342.813 253.112, 340.750 252.639 L 337 251.777 337 285.889 L 337 320 255 320 L 173 320 173 286 C 173 267.300, 172.662 252.049, 172.250 252.110 C 171.838 252.170, 169.475 252.647, 167 253.170" stroke="none" fill="black" fill-rule="evenodd"/>
</svg>